<?xml version="1.0" encoding="UTF-8"?>
<svg xmlns="http://www.w3.org/2000/svg" width="1370" height="820" viewBox="0 0 1370 820">
  <style>
    .node { fill: white; stroke: black; stroke-width: 1; }
    .node-label { font-family: sans-serif; font-size: 11px; text-anchor: middle; dominant-baseline: central; }
    .edge { stroke: black; fill: none; }
    .edge-label { font-family: sans-serif; font-size: 10px; text-anchor: middle; }
    .group { fill: #f2f2f2; stroke: none; }
    .group-label { font-family: sans-serif; font-size: 11px; fill: #555; }
  </style>
  <path class="edge" d="M431,150 L431,183 Q431,191 439,191 L833,191 Q841,191 841,199 L841,323 Q841,331 833,331 L614,331 Q606,331 606,339 L606,390" stroke-width="2"/>
  <text class="edge-label" x="636" y="188">transit</text>
  <path class="edge" d="M622,150 L622,199 Q622,207 630,207 L849,207 Q857,207 857,215 L857,339 Q857,347 849,347 L630,347 Q622,347 622,355 L622,390" stroke-width="2"/>
  <text class="edge-label" x="739" y="204">transit</text>
  <path class="edge" d="M813,150 L813,215 Q813,223 821,223 L865,223 Q873,223 873,231 L873,355 Q873,363 865,363 L646,363 Q638,363 638,371 L638,390" stroke-width="2"/>
  <text class="edge-label" x="755" y="360">peering</text>
  <path class="edge" d="M1014,150 L1014,206 Q1014,214 1022,214 L1076,214 Q1084,214 1084,222 L1084,346 Q1084,354 1076,354 L1022,354 Q1014,354 1014,362 L1014,390" stroke-width="2"/>
  <text class="edge-label" x="1049" y="211">peering</text>
  <line class="edge" x1="575" y1="270" x2="960" y2="270" stroke-dasharray="6,4"/>
  <line class="edge" x1="575" y1="270" x2="190" y2="410" stroke-dasharray="6,4"/>
  <line class="edge" x1="575" y1="270" x2="575" y2="410" stroke-dasharray="6,4"/>
  <line class="edge" x1="575" y1="270" x2="960" y2="410" stroke-dasharray="6,4"/>
  <line class="edge" x1="575" y1="270" x2="1180" y2="410" stroke-dasharray="6,4"/>
  <line class="edge" x1="960" y1="270" x2="190" y2="410" stroke-dasharray="6,4"/>
  <line class="edge" x1="960" y1="270" x2="575" y2="410" stroke-dasharray="6,4"/>
  <line class="edge" x1="960" y1="270" x2="960" y2="410" stroke-dasharray="6,4"/>
  <line class="edge" x1="960" y1="270" x2="1180" y2="410" stroke-dasharray="6,4"/>
  <line class="edge" x1="190" y1="410" x2="190" y2="550"/>
  <line class="edge" x1="575" y1="410" x2="575" y2="550"/>
  <line class="edge" x1="960" y1="410" x2="960" y2="550"/>
  <line class="edge" x1="1180" y1="410" x2="1180" y2="550"/>
  <line class="edge" x1="190" y1="550" x2="190" y2="690"/>
  <line class="edge" x1="575" y1="550" x2="575" y2="690"/>
  <line class="edge" x1="960" y1="550" x2="960" y2="690"/>
  <line class="edge" x1="1180" y1="550" x2="1180" y2="690"/>
  <rect class="node" x="320" y="110" width="160" height="40"/>
  <text class="node-label" x="400" y="130">Tier-1 transit A</text>
  <rect class="node" x="495" y="110" width="160" height="40"/>
  <text class="node-label" x="575" y="130">Tier-1 transit B</text>
  <rect class="node" x="670" y="110" width="160" height="40"/>
  <text class="node-label" x="750" y="130">Tokyo IX</text>
  <rect class="node" x="880" y="110" width="160" height="40"/>
  <text class="node-label" x="960" y="130">Osaka IX</text>
  <rect class="node" x="495" y="250" width="160" height="40"/>
  <text class="node-label" x="575" y="270">rr01</text>
  <rect class="node" x="880" y="250" width="160" height="40"/>
  <text class="node-label" x="960" y="270">rr02</text>
  <rect class="node" x="110" y="390" width="160" height="40"/>
  <text class="node-label" x="190" y="410">core-sap</text>
  <rect class="node" x="495" y="390" width="160" height="40"/>
  <text class="node-label" x="575" y="410">core-tok</text>
  <rect class="node" x="880" y="390" width="160" height="40"/>
  <text class="node-label" x="960" y="410">core-osa</text>
  <rect class="node" x="1100" y="390" width="160" height="40"/>
  <text class="node-label" x="1180" y="410">core-fuk</text>
  <rect class="node" x="110" y="530" width="160" height="40"/>
  <text class="node-label" x="190" y="550">agg-sap</text>
  <rect class="node" x="495" y="530" width="160" height="40"/>
  <text class="node-label" x="575" y="550">agg-tok</text>
  <rect class="node" x="880" y="530" width="160" height="40"/>
  <text class="node-label" x="960" y="550">agg-osa</text>
  <rect class="node" x="1100" y="530" width="160" height="40"/>
  <text class="node-label" x="1180" y="550">agg-fuk</text>
  <ellipse class="node" cx="190" cy="690" rx="90" ry="28"/>
  <text class="node-label" x="190" y="690">customers</text>
  <ellipse class="node" cx="575" cy="690" rx="90" ry="28"/>
  <text class="node-label" x="575" y="690">customers</text>
  <ellipse class="node" cx="960" cy="690" rx="90" ry="28"/>
  <text class="node-label" x="960" y="690">customers</text>
  <ellipse class="node" cx="1180" cy="690" rx="90" ry="28"/>
  <text class="node-label" x="1180" y="690">customers</text>
</svg>


