<?xml version="1.0" encoding="UTF-8"?>
<svg xmlns="http://www.w3.org/2000/svg" width="440" height="540" viewBox="0 0 440 540">
  <style>
    .node { fill: white; stroke: black; stroke-width: 1; }
    .node-label { font-family: sans-serif; font-size: 11px; text-anchor: middle; dominant-baseline: central; }
    .edge { stroke: black; fill: none; }
    .edge-label { font-family: sans-serif; font-size: 10px; text-anchor: middle; }
  </style>
  <line class="edge" x1="150" y1="130" x2="150" y2="270" stroke-width="2"/>
  <line class="edge" x1="290" y1="130" x2="290" y2="270" stroke-width="2"/>
  <line class="edge" x1="150" y1="130" x2="290" y2="270" stroke-dasharray="6,4"/>
  <line class="edge" x1="290" y1="130" x2="150" y2="270" stroke-dasharray="6,4"/>
  <line class="edge" x1="150" y1="270" x2="150" y2="410" stroke-width="2"/>
  <line class="edge" x1="290" y1="270" x2="290" y2="410" stroke-width="2"/>
  <line class="edge" x1="150" y1="270" x2="290" y2="410" stroke-dasharray="6,4"/>
  <line class="edge" x1="290" y1="270" x2="150" y2="410" stroke-dasharray="6,4"/>
  <rect class="node" x="100" y="110" width="100" height="40"/>
  <text class="node-label" x="150" y="130">rt01 (active)</text>
  <rect class="node" x="240" y="110" width="100" height="40"/>
  <text class="node-label" x="290" y="130">rt02 (standby)</text>
  <rect class="node" x="100" y="250" width="100" height="40"/>
  <text class="node-label" x="150" y="270">fw01 (active)</text>
  <rect class="node" x="240" y="250" width="100" height="40"/>
  <text class="node-label" x="290" y="270">fw02 (standby)</text>
  <rect class="node" x="100" y="390" width="100" height="40"/>
  <text class="node-label" x="150" y="410">core01</text>
  <rect class="node" x="240" y="390" width="100" height="40"/>
  <text class="node-label" x="290" y="410">core02</text>
</svg>
