<?xml version="1.0" encoding="UTF-8"?>
<svg xmlns="http://www.w3.org/2000/svg" width="1635" height="820" viewBox="0 0 1635 820">
  <style>
    .node { fill: white; stroke: black; stroke-width: 1; }
    .node-label { font-family: sans-serif; font-size: 11px; text-anchor: middle; dominant-baseline: central; }
    .edge { stroke: black; fill: none; }
    .edge-label { font-family: sans-serif; font-size: 10px; text-anchor: middle; }
    .group { fill: #f2f2f2; stroke: none; }
    .group-label { font-family: sans-serif; font-size: 11px; fill: #555; }
  </style>
  <path class="edge" d="M294,158 L294,179 Q294,187 302,187 L433,187 Q441,187 441,195 L441,459 Q441,467 449,467 L494,467 Q502,467 502,475 L502,530"/>
  <path class="edge" d="M297,158 L297,182 Q297,190 305,190 L436,190 Q444,190 444,198 L444,462 Q444,470 452,470 L1047,470 Q1055,470 1055,478 L1055,530"/>
  <line class="edge" x1="180" y1="270" x2="643" y2="410" stroke-width="2"/>
  <line class="edge" x1="180" y1="270" x2="817" y2="410" stroke-width="2"/>
  <path class="edge" d="M220,290 L220,332 Q220,340 228,340 L1145,340 Q1153,340 1153,348 L1153,390" stroke-width="2"/>
  <path class="edge" d="M227,290 L227,339 Q227,347 235,347 L1326,347 Q1334,347 1334,355 L1334,390" stroke-width="2"/>
  <line class="edge" x1="354" y1="270" x2="643" y2="410" stroke-width="2"/>
  <line class="edge" x1="354" y1="270" x2="817" y2="410" stroke-width="2"/>
  <line class="edge" x1="354" y1="270" x2="1193" y2="410" stroke-width="2"/>
  <path class="edge" d="M417,290 L417,355 Q417,363 425,363 L1342,363 Q1350,363 1350,371 L1350,390" stroke-width="2"/>
  <line class="edge" x1="643" y1="410" x2="555" y2="550" stroke-width="2"/>
  <line class="edge" x1="643" y1="410" x2="730" y2="550" stroke-width="2"/>
  <line class="edge" x1="643" y1="410" x2="905" y2="550" stroke-width="2"/>
  <line class="edge" x1="817" y1="410" x2="555" y2="550" stroke-width="2"/>
  <line class="edge" x1="817" y1="410" x2="730" y2="550" stroke-width="2"/>
  <line class="edge" x1="817" y1="410" x2="905" y2="550" stroke-width="2"/>
  <line class="edge" x1="1193" y1="410" x2="1105" y2="550" stroke-width="2"/>
  <line class="edge" x1="1193" y1="410" x2="1280" y2="550" stroke-width="2"/>
  <line class="edge" x1="1193" y1="410" x2="1455" y2="550" stroke-width="2"/>
  <line class="edge" x1="1367" y1="410" x2="1105" y2="550" stroke-width="2"/>
  <line class="edge" x1="1367" y1="410" x2="1280" y2="550" stroke-width="2"/>
  <line class="edge" x1="1367" y1="410" x2="1455" y2="550" stroke-width="2"/>
  <line class="edge" x1="730" y1="550" x2="633" y2="690" stroke-width="2"/>
  <line class="edge" x1="905" y1="550" x2="827" y2="690" stroke-width="2"/>
  <line class="edge" x1="1280" y1="550" x2="1183" y2="690" stroke-width="2"/>
  <line class="edge" x1="1455" y1="550" x2="1377" y2="690" stroke-width="2"/>
  <ellipse class="node" cx="267" cy="130" rx="90" ry="28"/>
  <text class="node-label" x="267" y="130">Internet</text>
  <rect class="node" x="100" y="250" width="160" height="40"/>
  <text class="node-label" x="180" y="270">ssp-1</text>
  <rect class="node" x="274" y="250" width="160" height="40"/>
  <text class="node-label" x="354" y="270">ssp-2</text>
  <rect class="node" x="563" y="390" width="160" height="40"/>
  <text class="node-label" x="643" y="410">sp-1a</text>
  <rect class="node" x="737" y="390" width="160" height="40"/>
  <text class="node-label" x="817" y="410">sp-1b</text>
  <rect class="node" x="1113" y="390" width="160" height="40"/>
  <text class="node-label" x="1193" y="410">sp-2a</text>
  <rect class="node" x="1287" y="390" width="160" height="40"/>
  <text class="node-label" x="1367" y="410">sp-2b</text>
  <rect class="node" x="475" y="530" width="160" height="40"/>
  <text class="node-label" x="555" y="550">bl-1</text>
  <rect class="node" x="650" y="530" width="160" height="40"/>
  <text class="node-label" x="730" y="550">sl-1a</text>
  <rect class="node" x="825" y="530" width="160" height="40"/>
  <text class="node-label" x="905" y="550">sl-1b</text>
  <rect class="node" x="1025" y="530" width="160" height="40"/>
  <text class="node-label" x="1105" y="550">bl-2</text>
  <rect class="node" x="1200" y="530" width="160" height="40"/>
  <text class="node-label" x="1280" y="550">sl-2a</text>
  <rect class="node" x="1375" y="530" width="160" height="40"/>
  <text class="node-label" x="1455" y="550">sl-2b</text>
  <ellipse class="node" cx="633" cy="690" rx="90" ry="28"/>
  <text class="node-label" x="633" y="690">server</text>
  <ellipse class="node" cx="827" cy="690" rx="90" ry="28"/>
  <text class="node-label" x="827" y="690">server</text>
  <ellipse class="node" cx="1183" cy="690" rx="90" ry="28"/>
  <text class="node-label" x="1183" y="690">server</text>
  <ellipse class="node" cx="1377" cy="690" rx="90" ry="28"/>
  <text class="node-label" x="1377" y="690">server</text>
</svg>


